<?xml version="1.0" encoding="UTF-8" standalone="no"?>
<!-- Created with Inkscape (http://www.inkscape.org/) -->

<svg
   width="210mm"
   height="297mm"
   viewBox="0 0 210 297"
   version="1.1"
   id="svg5"
   sodipodi:docname="contour.svg"
   inkscape:version="1.1 (c68e22c387, 2021-05-23)"
   xmlns:inkscape="http://www.inkscape.org/namespaces/inkscape"
   xmlns:sodipodi="http://sodipodi.sourceforge.net/DTD/sodipodi-0.dtd"
   xmlns="http://www.w3.org/2000/svg"
   xmlns:svg="http://www.w3.org/2000/svg"
   xmlns:ns0="http://www.iki.fi/pav/software/textext/">
  <sodipodi:namedview
     id="namedview7"
     pagecolor="#ffffff"
     bordercolor="#666666"
     borderopacity="1.0"
     inkscape:pageshadow="2"
     inkscape:pageopacity="0.0"
     inkscape:pagecheckerboard="0"
     inkscape:document-units="mm"
     showgrid="false"
     inkscape:zoom="1.4468942"
     inkscape:cx="396.71181"
     inkscape:cy="561.20207"
     inkscape:window-width="3840"
     inkscape:window-height="2066"
     inkscape:window-x="1609"
     inkscape:window-y="-11"
     inkscape:window-maximized="1"
     inkscape:current-layer="layer1" />
  <defs
     id="defs2">
    <marker
       style="overflow:visible;"
       id="Arrow1Lend"
       refX="0.0"
       refY="0.0"
       orient="auto"
       inkscape:stockid="Arrow1Lend"
       inkscape:isstock="true">
      <path
         transform="scale(0.8) rotate(180) translate(12.5,0)"
         style="fill-rule:evenodd;fill:context-stroke;stroke:context-stroke;stroke-width:1.0pt;"
         d="M 0.0,0.0 L 5.0,-5.0 L -12.5,0.0 L 5.0,5.0 L 0.0,0.0 z "
         id="path28408" />
    </marker>
    <marker
       style="overflow:visible"
       id="Arrow1Lstart"
       refX="0.0"
       refY="0.0"
       orient="auto"
       inkscape:stockid="Arrow1Lstart"
       inkscape:isstock="true">
      <path
         transform="scale(0.8) translate(12.5,0)"
         style="fill-rule:evenodd;fill:context-stroke;stroke:context-stroke;stroke-width:1.0pt"
         d="M 0.0,0.0 L 5.0,-5.0 L -12.5,0.0 L 5.0,5.0 L 0.0,0.0 z "
         id="path28405" />
    </marker>
  </defs>
  <g
     inkscape:label="レイヤー 1"
     inkscape:groupmode="layer"
     id="layer1">
    <circle
       style="opacity:0.799534;fill:#ff0000;stroke-width:0.49389"
       id="path846"
       cx="70.585098"
       cy="178.10851"
       r="5.485888"
       inkscape:export-filename="C:\Users\hsasa\document-preprints\figures\contour.png"
       inkscape:export-xdpi="300"
       inkscape:export-ydpi="300" />
    <circle
       style="opacity:0.799534;fill:#ff0000;stroke-width:0.49389"
       id="path846-2"
       cx="72.048004"
       cy="185.78874"
       r="5.485888"
       inkscape:export-filename="C:\Users\hsasa\document-preprints\figures\contour.png"
       inkscape:export-xdpi="300"
       inkscape:export-ydpi="300" />
    <circle
       style="opacity:0.799534;fill:#ff0000;stroke-width:0.49389"
       id="path846-24"
       cx="75.705261"
       cy="171.52545"
       r="5.485888"
       inkscape:export-filename="C:\Users\hsasa\document-preprints\figures\contour.png"
       inkscape:export-xdpi="300"
       inkscape:export-ydpi="300" />
    <circle
       style="opacity:0.799534;fill:#ff0000;stroke-width:0.49389"
       id="path846-20"
       cx="83.019775"
       cy="168.05104"
       r="5.485888"
       inkscape:export-filename="C:\Users\hsasa\document-preprints\figures\contour.png"
       inkscape:export-xdpi="300"
       inkscape:export-ydpi="300" />
    <circle
       style="opacity:0.799534;fill:#ff0000;stroke-width:0.49389"
       id="path846-1"
       cx="99.111717"
       cy="179.02283"
       r="5.485888"
       inkscape:export-filename="C:\Users\hsasa\document-preprints\figures\contour.png"
       inkscape:export-xdpi="300"
       inkscape:export-ydpi="300" />
    <circle
       style="opacity:0.799534;fill:#ff0000;stroke-width:0.49389"
       id="path846-4"
       cx="95.271584"
       cy="185.0573"
       r="5.485888"
       inkscape:export-filename="C:\Users\hsasa\document-preprints\figures\contour.png"
       inkscape:export-xdpi="300"
       inkscape:export-ydpi="300" />
    <circle
       style="opacity:0.799534;fill:#ff0000;stroke-width:0.49389"
       id="path846-19"
       cx="48.275818"
       cy="198.04057"
       r="5.485888"
       inkscape:export-filename="C:\Users\hsasa\document-preprints\figures\contour.png"
       inkscape:export-xdpi="300"
       inkscape:export-ydpi="300" />
    <circle
       style="opacity:0.799534;fill:#ff0000;stroke-width:0.49389"
       id="path846-48"
       cx="57.418964"
       cy="187.43452"
       r="5.485888"
       inkscape:export-filename="C:\Users\hsasa\document-preprints\figures\contour.png"
       inkscape:export-xdpi="300"
       inkscape:export-ydpi="300" />
    <circle
       style="opacity:0.799534;fill:#ff0000;stroke-width:0.49389"
       id="path846-18"
       cx="65.464935"
       cy="191.27464"
       r="5.485888"
       inkscape:export-filename="C:\Users\hsasa\document-preprints\figures\contour.png"
       inkscape:export-xdpi="300"
       inkscape:export-ydpi="300" />
    <circle
       style="opacity:0.799534;fill:#ff0000;stroke-width:0.49389"
       id="path846-7"
       cx="46.081463"
       cy="182.68008"
       r="5.485888"
       inkscape:export-filename="C:\Users\hsasa\document-preprints\figures\contour.png"
       inkscape:export-xdpi="300"
       inkscape:export-ydpi="300" />
    <circle
       style="opacity:0.799534;fill:#ff0000;stroke-width:0.49389"
       id="path846-49"
       cx="48.824406"
       cy="207.54944"
       r="5.485888"
       inkscape:export-filename="C:\Users\hsasa\document-preprints\figures\contour.png"
       inkscape:export-xdpi="300"
       inkscape:export-ydpi="300" />
    <circle
       style="opacity:0.799534;fill:#ff0000;stroke-width:0.49389"
       id="path846-0"
       cx="128.00406"
       cy="118.12947"
       r="5.485888"
       inkscape:export-filename="C:\Users\hsasa\document-preprints\figures\contour.png"
       inkscape:export-xdpi="300"
       inkscape:export-ydpi="300" />
    <circle
       style="opacity:0.799534;fill:#ff0000;stroke-width:0.49389"
       id="path846-195"
       cx="124.71253"
       cy="126.17544"
       r="5.485888"
       inkscape:export-filename="C:\Users\hsasa\document-preprints\figures\contour.png"
       inkscape:export-xdpi="300"
       inkscape:export-ydpi="300" />
    <circle
       style="opacity:0.799534;fill:#ff0000;stroke-width:0.49389"
       id="path846-8"
       cx="111.72926"
       cy="170.42827"
       r="5.485888"
       inkscape:export-filename="C:\Users\hsasa\document-preprints\figures\contour.png"
       inkscape:export-xdpi="300"
       inkscape:export-ydpi="300" />
    <circle
       style="opacity:0.799534;fill:#ff0000;stroke-width:0.49389"
       id="path846-6"
       cx="118.12946"
       cy="175.54842"
       r="5.485888"
       inkscape:export-filename="C:\Users\hsasa\document-preprints\figures\contour.png"
       inkscape:export-xdpi="300"
       inkscape:export-ydpi="300" />
    <circle
       style="opacity:0.799534;fill:#ff0000;stroke-width:0.49389"
       id="path846-487"
       cx="123.24963"
       cy="179.93713"
       r="5.485888"
       inkscape:export-filename="C:\Users\hsasa\document-preprints\figures\contour.png"
       inkscape:export-xdpi="300"
       inkscape:export-ydpi="300" />
    <circle
       style="opacity:0.799534;fill:#ff0000;stroke-width:0.49389"
       id="path846-82"
       cx="118.31232"
       cy="186.88594"
       r="5.485888"
       inkscape:export-filename="C:\Users\hsasa\document-preprints\figures\contour.png"
       inkscape:export-xdpi="300"
       inkscape:export-ydpi="300" />
    <circle
       style="opacity:0.799534;fill:#ff0000;stroke-width:0.49389"
       id="path846-04"
       cx="130.74699"
       cy="149.21616"
       r="5.485888"
       inkscape:export-filename="C:\Users\hsasa\document-preprints\figures\contour.png"
       inkscape:export-xdpi="300"
       inkscape:export-ydpi="300" />
    <circle
       style="opacity:0.799534;fill:#ff0000;stroke-width:0.49389"
       id="path846-39"
       cx="139.70729"
       cy="144.64459"
       r="5.485888"
       inkscape:export-filename="C:\Users\hsasa\document-preprints\figures\contour.png"
       inkscape:export-xdpi="300"
       inkscape:export-ydpi="300" />
    <circle
       style="opacity:0.799534;fill:#ff0000;stroke-width:0.49389"
       id="path846-80"
       cx="140.25589"
       cy="138.24438"
       r="5.485888"
       inkscape:export-filename="C:\Users\hsasa\document-preprints\figures\contour.png"
       inkscape:export-xdpi="300"
       inkscape:export-ydpi="300" />
    <circle
       style="opacity:0.799534;fill:#ff0000;stroke-width:0.49389"
       id="path846-60"
       cx="136.23289"
       cy="133.85568"
       r="5.485888"
       inkscape:export-filename="C:\Users\hsasa\document-preprints\figures\contour.png"
       inkscape:export-xdpi="300"
       inkscape:export-ydpi="300" />
    <circle
       style="opacity:0.799534;fill:#ff0000;stroke-width:0.49389"
       id="path846-9"
       cx="98.563118"
       cy="193.28615"
       r="5.485888"
       inkscape:export-filename="C:\Users\hsasa\document-preprints\figures\contour.png"
       inkscape:export-xdpi="300"
       inkscape:export-ydpi="300" />
    <circle
       style="opacity:0.799534;fill:#ff0000;stroke-width:0.49389"
       id="path846-28"
       cx="106.42623"
       cy="196.76053"
       r="5.485888"
       inkscape:export-filename="C:\Users\hsasa\document-preprints\figures\contour.png"
       inkscape:export-xdpi="300"
       inkscape:export-ydpi="300" />
    <circle
       style="opacity:0.799534;fill:#ff0000;stroke-width:0.49389"
       id="path846-32"
       cx="113.37502"
       cy="193.28613"
       r="5.485888"
       inkscape:export-filename="C:\Users\hsasa\document-preprints\figures\contour.png"
       inkscape:export-xdpi="300"
       inkscape:export-ydpi="300" />
    <circle
       style="opacity:0.799534;fill:#ff0000;stroke-width:0.49389"
       id="path846-10"
       cx="90.700027"
       cy="164.94238"
       r="5.485888"
       inkscape:export-filename="C:\Users\hsasa\document-preprints\figures\contour.png"
       inkscape:export-xdpi="300"
       inkscape:export-ydpi="300" />
    <circle
       style="opacity:0.799534;fill:#ff0000;stroke-width:0.49389"
       id="path846-5"
       cx="97.283081"
       cy="169.3311"
       r="5.485888"
       inkscape:export-filename="C:\Users\hsasa\document-preprints\figures\contour.png"
       inkscape:export-xdpi="300"
       inkscape:export-ydpi="300" />
    <circle
       style="opacity:0.799534;fill:#ff0000;stroke-width:0.49389"
       id="path846-325"
       cx="112.64357"
       cy="163.66234"
       r="5.485888"
       inkscape:export-filename="C:\Users\hsasa\document-preprints\figures\contour.png"
       inkscape:export-xdpi="300"
       inkscape:export-ydpi="300" />
    <circle
       style="opacity:0.799534;fill:#ff0000;stroke-width:0.49389"
       id="path846-78"
       cx="122.70104"
       cy="153.78773"
       r="5.485888"
       inkscape:export-filename="C:\Users\hsasa\document-preprints\figures\contour.png"
       inkscape:export-xdpi="300"
       inkscape:export-ydpi="300" />
    <circle
       style="opacity:0.799534;fill:#ff0000;stroke-width:0.49389"
       id="path846-79"
       cx="128.3698"
       cy="130.74701"
       r="5.485888"
       inkscape:export-filename="C:\Users\hsasa\document-preprints\figures\contour.png"
       inkscape:export-xdpi="300"
       inkscape:export-ydpi="300" />
    <circle
       style="opacity:0.799534;fill:#ff0000;stroke-width:0.49389"
       id="path846-79-0"
       cx="121.23814"
       cy="106.6091"
       r="5.485888"
       inkscape:export-filename="C:\Users\hsasa\document-preprints\figures\contour.png"
       inkscape:export-xdpi="300"
       inkscape:export-ydpi="300" />
    <circle
       style="opacity:0.799534;fill:#ff0000;stroke-width:0.49389"
       id="path846-79-1"
       cx="113.19216"
       cy="104.04901"
       r="5.485888"
       inkscape:export-filename="C:\Users\hsasa\document-preprints\figures\contour.png"
       inkscape:export-xdpi="300"
       inkscape:export-ydpi="300" />
    <circle
       style="opacity:0.799534;fill:#ff0000;stroke-width:0.49389"
       id="path846-79-3"
       cx="142.45023"
       cy="107.34055"
       r="5.485888"
       inkscape:export-filename="C:\Users\hsasa\document-preprints\figures\contour.png"
       inkscape:export-xdpi="300"
       inkscape:export-ydpi="300" />
    <circle
       style="opacity:0.799534;fill:#ff0000;stroke-width:0.49389"
       id="path846-79-2"
       cx="134.77"
       cy="108.43772"
       r="5.485888"
       inkscape:export-filename="C:\Users\hsasa\document-preprints\figures\contour.png"
       inkscape:export-xdpi="300"
       inkscape:export-ydpi="300" />
    <circle
       style="opacity:0.799534;fill:#ff0000;stroke-width:0.49389"
       id="path846-79-6"
       cx="43.155655"
       cy="174.63412"
       r="5.485888"
       inkscape:export-filename="C:\Users\hsasa\document-preprints\figures\contour.png"
       inkscape:export-xdpi="300"
       inkscape:export-ydpi="300" />
    <circle
       style="opacity:0.799534;fill:#ff0000;stroke-width:0.49389"
       id="path846-79-7"
       cx="119.59237"
       cy="160.00508"
       r="5.485888"
       inkscape:export-filename="C:\Users\hsasa\document-preprints\figures\contour.png"
       inkscape:export-xdpi="300"
       inkscape:export-ydpi="300" />
    <circle
       style="opacity:0.799534;fill:#ff0000;stroke-width:0.49389"
       id="path846-79-4"
       cx="107.15768"
       cy="105.32906"
       r="5.485888"
       inkscape:export-filename="C:\Users\hsasa\document-preprints\figures\contour.png"
       inkscape:export-xdpi="300"
       inkscape:export-ydpi="300" />
    <circle
       style="opacity:0.799534;fill:#ff0000;stroke-width:0.49389"
       id="path846-79-4-2"
       cx="44.069969"
       cy="210.65811"
       r="5.485888"
       inkscape:export-filename="C:\Users\hsasa\document-preprints\figures\contour.png"
       inkscape:export-xdpi="300"
       inkscape:export-ydpi="300" />
    <circle
       style="opacity:0.799534;fill:#ff0000;stroke-width:0.49389"
       id="path846-79-4-29"
       cx="36.938316"
       cy="173.7198"
       r="5.485888"
       inkscape:export-filename="C:\Users\hsasa\document-preprints\figures\contour.png"
       inkscape:export-xdpi="300"
       inkscape:export-ydpi="300" />
    <circle
       style="opacity:0.799534;fill:#ff0000;stroke-width:0.49389"
       id="path846-79-67"
       cx="147.75325"
       cy="112.46071"
       r="5.485888"
       inkscape:export-filename="C:\Users\hsasa\document-preprints\figures\contour.png"
       inkscape:export-xdpi="300"
       inkscape:export-ydpi="300" />
    <circle
       style="opacity:0.799534;fill:#000080;stroke-width:0.49389"
       id="path846-3-9"
       cx="127.63834"
       cy="111.5464"
       r="5.485888"
       inkscape:export-filename="C:\Users\hsasa\document-preprints\figures\contour.png"
       inkscape:export-xdpi="300"
       inkscape:export-ydpi="300" />
    <circle
       style="opacity:0.799534;fill:#000080;stroke-width:0.49389"
       id="path846-3"
       cx="49.372997"
       cy="190.36034"
       r="5.485888"
       inkscape:export-filename="C:\Users\hsasa\document-preprints\figures\contour.png"
       inkscape:export-xdpi="300"
       inkscape:export-ydpi="300" />
    <path
       style="fill:none;stroke:#000000;stroke-width:0.70555556;stroke-linecap:butt;stroke-linejoin:miter;stroke-opacity:1;stroke-miterlimit:4;stroke-dasharray:none;marker-start:url(#Arrow1Lstart);marker-end:url(#Arrow1Lend)"
       d="M 69.853646,177.74278 123.06676,154.15346"
       id="path1535"
       sodipodi:nodetypes="cc"
       inkscape:export-filename="C:\Users\hsasa\document-preprints\figures\contour.png"
       inkscape:export-xdpi="300"
       inkscape:export-ydpi="300" />
    <text
       xml:space="preserve"
       style="font-size:9.87777px;line-height:1.25;font-family:Arial;-inkscape-font-specification:Arial;stroke-width:0.264583"
       x="64.002029"
       y="171.89117"
       id="text5059"
       inkscape:export-filename="C:\Users\hsasa\document-preprints\figures\contour.png"
       inkscape:export-xdpi="300"
       inkscape:export-ydpi="300"><tspan
         sodipodi:role="line"
         id="tspan5057"
         style="font-style:italic;font-variant:normal;font-weight:normal;font-stretch:normal;font-family:Arial;-inkscape-font-specification:'Arial Italic';stroke-width:0.264583"
         x="64.002029"
         y="171.89117">i</tspan></text>
    <text
       xml:space="preserve"
       style="font-size:9.87777px;line-height:1.25;font-family:Arial;-inkscape-font-specification:Arial;stroke-width:0.264583"
       x="119.2209"
       y="146.8999"
       id="text5059-8"
       inkscape:export-filename="C:\Users\hsasa\document-preprints\figures\contour.png"
       inkscape:export-xdpi="300"
       inkscape:export-ydpi="300"><tspan
         sodipodi:role="line"
         id="tspan5057-0"
         style="font-style:italic;font-variant:normal;font-weight:normal;font-stretch:normal;font-family:Arial;-inkscape-font-specification:'Arial Italic';stroke-width:0.264583"
         x="119.2209"
         y="146.8999">j</tspan></text>
    <text
       xml:space="preserve"
       style="font-size:9.87777px;line-height:1.25;font-family:Arial;-inkscape-font-specification:Arial;stroke-width:0.264583"
       x="94.357285"
       y="156.89641"
       id="text27315"
       inkscape:export-filename="C:\Users\hsasa\document-preprints\figures\contour.png"
       inkscape:export-xdpi="300"
       inkscape:export-ydpi="300"><tspan
         sodipodi:role="line"
         id="tspan27313"
         style="stroke-width:0.264583"
         x="94.357285"
         y="156.89641">|<tspan
   style="font-style:italic;font-variant:normal;font-weight:normal;font-stretch:normal;font-family:Arial;-inkscape-font-specification:'Arial Italic'"
   id="tspan34809">i</tspan>-<tspan
   style="font-style:italic;font-variant:normal;font-weight:normal;font-stretch:normal;font-family:Arial;-inkscape-font-specification:'Arial Italic'"
   id="tspan32329">j</tspan>|</tspan></text>
    <text
       xml:space="preserve"
       style="font-size:9.87777px;line-height:1.25;font-family:Arial;-inkscape-font-specification:Arial;stroke-width:0.264583"
       x="36.755451"
       y="130.19841"
       id="text39337"><tspan
         sodipodi:role="line"
         id="tspan39335"
         style="stroke-width:0.264583"
         x="36.755451"
         y="130.19841" /></text>
    <g
       transform="matrix(1.7170842,0,0,1.7170842,44.206931,124.69107)"
       ns0:version="1.4.0"
       ns0:texconverter="pdflatex"
       ns0:pdfconverter="inkscape"
       ns0:text="$\\langle |i-j| \\rangle$"
       ns0:preamble="C:\Users\hsasa\AppData\Roaming\inkscape\extensions\textext\default_packages.tex"
       ns0:scale="1.0"
       ns0:alignment="middle center"
       ns0:jacobian_sqrt="0.352778"
       id="g41073"
       inkscape:export-filename="C:\Users\hsasa\document-preprints\figures\contour.png"
       inkscape:export-xdpi="300"
       inkscape:export-ydpi="300">
      <defs
         id="id-fd4a87e4-2278-490e-be9a-6b7fdbe7b8dd">
        <g
           id="id-4b439664-207b-4250-88e6-8d44d0c4bad4">
          <symbol
             overflow="visible"
             id="id-a8f405b3-4070-45ab-b9e1-f7fe145484c2">
            <path
               style="stroke:none;stroke-width:0"
               d=""
               id="id-f4c6a9b3-85bb-4784-8da6-3f93ffa8cccd" />
          </symbol>
          <symbol
             overflow="visible"
             id="id-bc14d597-fa12-4427-8d84-1cb3debd7b27">
            <path
               style="stroke:none;stroke-width:0"
               d="M 3.265625,-7.09375 C 3.3125,-7.203125 3.3125,-7.234375 3.3125,-7.28125 c 0,-0.109375 -0.078125,-0.203125 -0.1875,-0.203125 -0.09375,0 -0.171875,0.0625 -0.234375,0.234375 l -1.75,4.578125 C 1.125,-2.609375 1.09375,-2.546875 1.09375,-2.5 c 0,0.03125 0,0.0625 0.046875,0.171875 L 2.890625,2.25 C 2.9375,2.359375 2.984375,2.5 3.125,2.5 c 0.109375,0 0.1875,-0.09375 0.1875,-0.203125 0,-0.03125 0,-0.046875 -0.046875,-0.15625 L 1.5,-2.5 Z m 0,0"
               id="id-f2dc0117-d647-4f05-b76d-94bd814d8d7b" />
          </symbol>
          <symbol
             overflow="visible"
             id="id-12ac8b9f-8785-4d08-b79b-2dbfbdc4c5ea">
            <path
               style="stroke:none;stroke-width:0"
               d="m 1.578125,-7.125 c 0,-0.171875 0,-0.359375 -0.1875,-0.359375 -0.203125,0 -0.203125,0.1875 -0.203125,0.359375 v 9.265625 c 0,0.171875 0,0.359375 0.203125,0.359375 0.1875,0 0.1875,-0.1875 0.1875,-0.359375 z m 0,0"
               id="id-2fa053d5-1ca8-4bc7-9871-2f90250c83d2" />
          </symbol>
          <symbol
             overflow="visible"
             id="id-1d95c7d2-c764-46ff-baa0-75c92c22565e">
            <path
               style="stroke:none;stroke-width:0"
               d="m 6.5625,-2.296875 c 0.171875,0 0.359375,0 0.359375,-0.203125 0,-0.1875 -0.1875,-0.1875 -0.359375,-0.1875 H 1.171875 c -0.171875,0 -0.34375,0 -0.34375,0.1875 0,0.203125 0.171875,0.203125 0.34375,0.203125 z m 0,0"
               id="id-02ebfd14-057e-414b-8a1b-19685a21d874" />
          </symbol>
          <symbol
             overflow="visible"
             id="id-17491196-171e-4951-87ca-e43190db9bf6">
            <path
               style="stroke:none;stroke-width:0"
               d="M 2.71875,-2.328125 C 2.765625,-2.4375 2.765625,-2.46875 2.765625,-2.5 c 0,-0.015625 0,-0.046875 -0.046875,-0.15625 L 0.984375,-7.25 c -0.0625,-0.171875 -0.125,-0.234375 -0.234375,-0.234375 -0.109375,0 -0.203125,0.09375 -0.203125,0.203125 0,0.03125 0,0.046875 0.046875,0.15625 L 2.359375,-2.5 0.59375,2.109375 C 0.546875,2.21875 0.546875,2.25 0.546875,2.296875 0.546875,2.40625 0.640625,2.5 0.75,2.5 0.875,2.5 0.921875,2.390625 0.953125,2.296875 Z m 0,0"
               id="id-a5f2b940-c172-438c-9de1-28cb19cc705e" />
          </symbol>
          <symbol
             overflow="visible"
             id="id-feeee462-b20c-4ebc-ab58-7f59b949ca80">
            <path
               style="stroke:none;stroke-width:0"
               d=""
               id="id-dc59bcd3-947e-4397-8d0c-995303b31b84" />
          </symbol>
          <symbol
             overflow="visible"
             id="id-2878ad3f-6ae2-4a77-9d04-b4922efcdf00">
            <path
               style="stroke:none;stroke-width:0"
               d="m 2.828125,-6.234375 c 0,-0.203125 -0.140625,-0.359375 -0.359375,-0.359375 -0.28125,0 -0.546875,0.265625 -0.546875,0.53125 0,0.1875 0.140625,0.359375 0.375,0.359375 0.234375,0 0.53125,-0.234375 0.53125,-0.53125 z m -0.75,3.75 c 0.109375,-0.28125 0.109375,-0.3125 0.21875,-0.578125 0.078125,-0.203125 0.125,-0.34375 0.125,-0.53125 0,-0.4375 -0.3125,-0.8125 -0.8125,-0.8125 -0.9375,0 -1.3125,1.453125 -1.3125,1.53125 0,0.109375 0.09375,0.109375 0.109375,0.109375 0.109375,0 0.109375,-0.03125 0.15625,-0.1875 0.28125,-0.9375 0.671875,-1.234375 1.015625,-1.234375 0.078125,0 0.25,0 0.25,0.3125 0,0.21875 -0.078125,0.421875 -0.109375,0.53125 -0.078125,0.25 -0.53125,1.40625 -0.6875,1.84375 -0.109375,0.25 -0.234375,0.578125 -0.234375,0.796875 0,0.46875 0.34375,0.8125 0.8125,0.8125 0.9375,0 1.3125,-1.4375 1.3125,-1.53125 0,-0.109375 -0.09375,-0.109375 -0.125,-0.109375 -0.09375,0 -0.09375,0.03125 -0.140625,0.1875 -0.1875,0.625 -0.515625,1.234375 -1.015625,1.234375 -0.171875,0 -0.25,-0.09375 -0.25,-0.328125 0,-0.25 0.0625,-0.390625 0.296875,-1 z m 0,0"
               id="id-331aa998-c9c9-4726-848a-16e9664cac19" />
          </symbol>
          <symbol
             overflow="visible"
             id="id-e873e0d6-bb07-4be6-9466-c6f7ac42d1c0">
            <path
               style="stroke:none;stroke-width:0"
               d="m 3.953125,-6.234375 c 0,-0.1875 -0.140625,-0.359375 -0.375,-0.359375 -0.234375,0 -0.53125,0.234375 -0.53125,0.53125 0,0.203125 0.140625,0.359375 0.375,0.359375 0.265625,0 0.53125,-0.265625 0.53125,-0.53125 z m -2,6.734375 c -0.1875,0.75 -0.671875,1.328125 -1.21875,1.328125 -0.0625,0 -0.21875,0 -0.390625,-0.09375 0.296875,-0.0625 0.4375,-0.328125 0.4375,-0.53125 0,-0.15625 -0.109375,-0.34375 -0.375,-0.34375 -0.25,0 -0.53125,0.203125 -0.53125,0.5625 0,0.40625 0.390625,0.625 0.875,0.625 0.703125,0 1.625,-0.53125 1.875,-1.515625 L 3.53125,-3.125 c 0.0625,-0.1875 0.0625,-0.328125 0.0625,-0.359375 0,-0.578125 -0.421875,-0.921875 -0.921875,-0.921875 -1.015625,0 -1.578125,1.453125 -1.578125,1.53125 0,0.109375 0.09375,0.109375 0.109375,0.109375 0.09375,0 0.109375,-0.015625 0.1875,-0.203125 0.25,-0.609375 0.703125,-1.21875 1.25,-1.21875 0.140625,0 0.3125,0.046875 0.3125,0.453125 0,0.234375 -0.015625,0.34375 -0.0625,0.515625 z m 0,0"
               id="id-e1344bac-5825-459d-8d3e-b48d43d8e000" />
          </symbol>
        </g>
      </defs>
      <g
         id="id-abcf7057-5513-4a44-a1ab-f7c0652013d7"
         transform="translate(-149.806,-127.281)">
        <g
           style="fill:#000000"
           id="id-a7915916-97d3-4c68-aea8-372f4195f717">
          <g
             id="id-977f8889-8597-4d00-b8b4-7d9879e6e13c"
             transform="translate(148.712,134.765)">
            <path
               style="color:#000000;-inkscape-stroke:none"
               d="M 3.265625,-7.09375 C 3.3125,-7.203125 3.3125,-7.234375 3.3125,-7.28125 c 0,-0.109375 -0.078125,-0.203125 -0.1875,-0.203125 -0.09375,0 -0.171875,0.0625 -0.234375,0.234375 l -1.75,4.578125 C 1.125,-2.609375 1.09375,-2.546875 1.09375,-2.5 c 0,0.03125 0,0.0625 0.046875,0.171875 L 2.890625,2.25 C 2.9375,2.359375 2.984375,2.5 3.125,2.5 c 0.109375,0 0.1875,-0.09375 0.1875,-0.203125 0,-0.03125 0,-0.046875 -0.046875,-0.15625 L 1.5,-2.5 Z m 0,0"
               id="id-eddfa721-7573-498d-92eb-65f84d7d9ae4" />
          </g>
          <g
             id="id-b0b2ec3e-b86a-4afa-9e3c-29e667e1ae53"
             transform="translate(152.586,134.765)">
            <path
               style="color:#000000;-inkscape-stroke:none"
               d="m 1.578125,-7.125 c 0,-0.171875 0,-0.359375 -0.1875,-0.359375 -0.203125,0 -0.203125,0.1875 -0.203125,0.359375 v 9.265625 c 0,0.171875 0,0.359375 0.203125,0.359375 0.1875,0 0.1875,-0.1875 0.1875,-0.359375 z m 0,0"
               id="id-bdea7881-acd3-4792-8881-8cf6b9d98ec7" />
          </g>
        </g>
        <g
           style="fill:#000000"
           id="id-e9c17fa2-73dd-4505-9282-659ff955d824">
          <g
             id="id-229b1940-c90c-40f4-b10a-8895ba366a26"
             transform="translate(155.354,134.765)">
            <path
               style="color:#000000;-inkscape-stroke:none"
               d="m 2.828125,-6.234375 c 0,-0.203125 -0.140625,-0.359375 -0.359375,-0.359375 -0.28125,0 -0.546875,0.265625 -0.546875,0.53125 0,0.1875 0.140625,0.359375 0.375,0.359375 0.234375,0 0.53125,-0.234375 0.53125,-0.53125 z m -0.75,3.75 c 0.109375,-0.28125 0.109375,-0.3125 0.21875,-0.578125 0.078125,-0.203125 0.125,-0.34375 0.125,-0.53125 0,-0.4375 -0.3125,-0.8125 -0.8125,-0.8125 -0.9375,0 -1.3125,1.453125 -1.3125,1.53125 0,0.109375 0.09375,0.109375 0.109375,0.109375 0.109375,0 0.109375,-0.03125 0.15625,-0.1875 0.28125,-0.9375 0.671875,-1.234375 1.015625,-1.234375 0.078125,0 0.25,0 0.25,0.3125 0,0.21875 -0.078125,0.421875 -0.109375,0.53125 -0.078125,0.25 -0.53125,1.40625 -0.6875,1.84375 -0.109375,0.25 -0.234375,0.578125 -0.234375,0.796875 0,0.46875 0.34375,0.8125 0.8125,0.8125 0.9375,0 1.3125,-1.4375 1.3125,-1.53125 0,-0.109375 -0.09375,-0.109375 -0.125,-0.109375 -0.09375,0 -0.09375,0.03125 -0.140625,0.1875 -0.1875,0.625 -0.515625,1.234375 -1.015625,1.234375 -0.171875,0 -0.25,-0.09375 -0.25,-0.328125 0,-0.25 0.0625,-0.390625 0.296875,-1 z m 0,0"
               id="id-51c6826b-83d2-4acd-90a9-fc3435070ddf" />
          </g>
        </g>
        <g
           style="fill:#000000"
           id="id-588b30a8-b81e-4046-b5b9-5d6f966b152d">
          <g
             id="id-50def6d7-4cc0-4e1b-93ce-e430242dcc88"
             transform="translate(161,134.765)">
            <path
               style="color:#000000;-inkscape-stroke:none"
               d="m 6.5625,-2.296875 c 0.171875,0 0.359375,0 0.359375,-0.203125 0,-0.1875 -0.1875,-0.1875 -0.359375,-0.1875 H 1.171875 c -0.171875,0 -0.34375,0 -0.34375,0.1875 0,0.203125 0.171875,0.203125 0.34375,0.203125 z m 0,0"
               id="id-7f119114-4a49-46ae-bbb1-3272cff5bede" />
          </g>
        </g>
        <g
           style="fill:#000000"
           id="id-f5b87c41-ac2f-4f57-ac5a-5fc99925e278">
          <g
             id="id-49236810-de20-4c45-a23a-4f231ab725ac"
             transform="translate(170.963,134.765)">
            <path
               style="color:#000000;-inkscape-stroke:none"
               d="m 3.953125,-6.234375 c 0,-0.1875 -0.140625,-0.359375 -0.375,-0.359375 -0.234375,0 -0.53125,0.234375 -0.53125,0.53125 0,0.203125 0.140625,0.359375 0.375,0.359375 0.265625,0 0.53125,-0.265625 0.53125,-0.53125 z m -2,6.734375 c -0.1875,0.75 -0.671875,1.328125 -1.21875,1.328125 -0.0625,0 -0.21875,0 -0.390625,-0.09375 0.296875,-0.0625 0.4375,-0.328125 0.4375,-0.53125 0,-0.15625 -0.109375,-0.34375 -0.375,-0.34375 -0.25,0 -0.53125,0.203125 -0.53125,0.5625 0,0.40625 0.390625,0.625 0.875,0.625 0.703125,0 1.625,-0.53125 1.875,-1.515625 L 3.53125,-3.125 c 0.0625,-0.1875 0.0625,-0.328125 0.0625,-0.359375 0,-0.578125 -0.421875,-0.921875 -0.921875,-0.921875 -1.015625,0 -1.578125,1.453125 -1.578125,1.53125 0,0.109375 0.09375,0.109375 0.109375,0.109375 0.09375,0 0.109375,-0.015625 0.1875,-0.203125 0.25,-0.609375 0.703125,-1.21875 1.25,-1.21875 0.140625,0 0.3125,0.046875 0.3125,0.453125 0,0.234375 -0.015625,0.34375 -0.0625,0.515625 z m 0,0"
               id="id-0f8070f0-9bbd-4449-8cf1-0448ef474ed5" />
          </g>
        </g>
        <g
           style="fill:#000000"
           id="id-4f357129-9171-4b98-9727-a0e683b4accc">
          <g
             id="id-cf4e58a2-071d-4714-9a32-aaada68b7cf4"
             transform="translate(175.636,134.765)">
            <path
               style="color:#000000;-inkscape-stroke:none"
               d="m 1.578125,-7.125 c 0,-0.171875 0,-0.359375 -0.1875,-0.359375 -0.203125,0 -0.203125,0.1875 -0.203125,0.359375 v 9.265625 c 0,0.171875 0,0.359375 0.203125,0.359375 0.1875,0 0.1875,-0.1875 0.1875,-0.359375 z m 0,0"
               id="id-21d884e3-16e9-496f-b93f-5f3c060e7a1d" />
          </g>
          <g
             id="id-499a4263-9112-4a3e-816f-57cbd74a66fc"
             transform="translate(178.404,134.765)">
            <path
               style="color:#000000;-inkscape-stroke:none"
               d="M 2.71875,-2.328125 C 2.765625,-2.4375 2.765625,-2.46875 2.765625,-2.5 c 0,-0.015625 0,-0.046875 -0.046875,-0.15625 L 0.984375,-7.25 c -0.0625,-0.171875 -0.125,-0.234375 -0.234375,-0.234375 -0.109375,0 -0.203125,0.09375 -0.203125,0.203125 0,0.03125 0,0.046875 0.046875,0.15625 L 2.359375,-2.5 0.59375,2.109375 C 0.546875,2.21875 0.546875,2.25 0.546875,2.296875 0.546875,2.40625 0.640625,2.5 0.75,2.5 0.875,2.5 0.921875,2.390625 0.953125,2.296875 Z m 0,0"
               id="id-8da40be3-b3a7-400d-9cfb-a799c541640c" />
          </g>
        </g>
      </g>
    </g>
    <text
       xml:space="preserve"
       style="font-size:9.87777px;line-height:1.25;font-family:Arial;-inkscape-font-specification:Arial;stroke-width:0.264583"
       x="124.16394"
       y="102.40324"
       id="text49206"
       inkscape:export-filename="C:\Users\hsasa\document-preprints\figures\contour.png"
       inkscape:export-xdpi="300"
       inkscape:export-ydpi="300"><tspan
         sodipodi:role="line"
         id="tspan49204"
         style="stroke-width:0.264583"
         x="124.16394"
         y="102.40324">JP</tspan></text>
    <text
       xml:space="preserve"
       style="font-size:9.87777px;line-height:1.25;font-family:Arial;-inkscape-font-specification:Arial;stroke-width:0.264583"
       x="29.05303"
       y="196.7612"
       id="text49206-2"
       inkscape:export-filename="C:\Users\hsasa\document-preprints\figures\contour.png"
       inkscape:export-xdpi="300"
       inkscape:export-ydpi="300"><tspan
         sodipodi:role="line"
         id="tspan49204-1"
         style="stroke-width:0.264583"
         x="29.05303"
         y="196.7612">JP</tspan></text>
  </g>
</svg>
