<?xml version="1.0" encoding="UTF-8" standalone="no"?>
<!-- Created with Inkscape (http://www.inkscape.org/) -->

<svg
   xmlns:dc="http://purl.org/dc/elements/1.1/"
   xmlns:cc="http://creativecommons.org/ns#"
   xmlns:rdf="http://www.w3.org/1999/02/22-rdf-syntax-ns#"
   xmlns:svg="http://www.w3.org/2000/svg"
   xmlns="http://www.w3.org/2000/svg"
   xmlns:sodipodi="http://sodipodi.sourceforge.net/DTD/sodipodi-0.dtd"
   xmlns:inkscape="http://www.inkscape.org/namespaces/inkscape"
   width="188.70897"
   height="185.82169"
   viewBox="0 0 49.929247 49.165322"
   version="1.1"
   id="svg4419"
   inkscape:version="0.92.1 r15371"
   sodipodi:docname="Toagosei company logo.svg">
  <defs
     id="defs4413" />
  <sodipodi:namedview
     id="base"
     pagecolor="#ffffff"
     bordercolor="#666666"
     borderopacity="1.0"
     inkscape:pageopacity="0.0"
     inkscape:pageshadow="2"
     inkscape:zoom="1"
     inkscape:cx="118.68482"
     inkscape:cy="-51.960935"
     inkscape:document-units="mm"
     inkscape:current-layer="layer1"
     showgrid="false"
     units="px"
     fit-margin-top="5"
     fit-margin-bottom="5"
     fit-margin-right="5"
     fit-margin-left="5"
     inkscape:window-width="1280"
     inkscape:window-height="972"
     inkscape:window-x="-8"
     inkscape:window-y="-8"
     inkscape:window-maximized="1" />
  <metadata
     id="metadata4416">
    <rdf:RDF>
      <cc:Work
         rdf:about="">
        <dc:format>image/svg+xml</dc:format>
        <dc:type
           rdf:resource="http://purl.org/dc/dcmitype/StillImage" />
        <dc:title></dc:title>
      </cc:Work>
    </rdf:RDF>
  </metadata>
  <g
     inkscape:label="Layer 1"
     inkscape:groupmode="layer"
     id="layer1"
     transform="translate(-74.431307,-54.170007)">
    <path
       inkscape:connector-curvature="0"
       style="fill:#1961b5;fill-opacity:1;fill-rule:nonzero;stroke:none;stroke-width:0.71232587"
       d="m 119.51496,101.86493 h 1.41074 l 2.11194,-6.452665 h -1.41074 z m 0,0"
       id="path4324" />
    <path
       inkscape:connector-curvature="0"
       style="fill:#1961b5;fill-opacity:1;fill-rule:nonzero;stroke:none;stroke-width:0.71232587"
       d="m 107.28021,98.439651 c -0.48694,1.560999 -1.48865,3.010689 -2.86322,3.010689 -1.34117,0 -1.3996,-1.29944 -1.0184,-2.520966 0.65389,-2.106368 1.63891,-3.094165 2.87991,-3.094165 1.34118,0 1.37735,1.391257 1.00171,2.604442 m -0.77354,-3.169295 c -2.22324,0 -3.99014,1.513693 -4.57169,3.386334 -0.66502,2.13419 0.2866,3.35572 2.2622,3.35572 2.18706,0 4.01239,-1.55822 4.57446,-3.394678 0.44521,-1.458044 0.28104,-3.347376 -2.26497,-3.347376"
       id="path4326" />
    <path
       inkscape:connector-curvature="0"
       style="fill:#1961b5;fill-opacity:1;fill-rule:nonzero;stroke:none;stroke-width:0.71232587"
       d="m 86.102427,98.439651 c -0.486942,1.560999 -1.488649,3.010689 -2.863215,3.010689 -1.341178,0 -1.399609,-1.29944 -1.021186,-2.520966 0.656675,-2.106368 1.641687,-3.094165 2.882692,-3.094165 1.341178,0 1.380132,1.391257 1.001709,2.604442 m -0.773542,-3.169295 c -2.223235,0 -3.990136,1.513693 -4.571684,3.386334 -0.665025,2.13419 0.2866,3.35572 2.259409,3.35572 2.189845,0 4.01518,-1.55822 4.577251,-3.394678 0.445203,-1.458044 0.281033,-3.347376 -2.264976,-3.347376"
       id="path4328" />
    <path
       inkscape:connector-curvature="0"
       style="fill:#1961b5;fill-opacity:1;fill-rule:nonzero;stroke:none;stroke-width:0.71232587"
       d="m 114.24765,96.605967 0.49807,-0.957188 c -0.14191,-0.197558 -0.8125,-0.392335 -1.48865,-0.392335 -1.43022,0 -2.48479,0.887623 -2.82148,1.975593 -0.6372,2.067412 2.23993,1.722383 1.74743,3.227723 -0.21426,0.64833 -0.84867,0.99893 -1.42187,0.94328 -0.67894,-0.0696 -1.11023,-0.35895 -1.39683,-0.84589 l -0.53146,1.03788 c 0.34781,0.28382 0.99058,0.40625 1.50813,0.40625 1.45804,0 2.79087,-0.8598 3.16929,-2.070198 0.58711,-1.869856 -2.2288,-1.917159 -1.81421,-3.188769 0.17531,-0.534244 0.59268,-0.909888 1.3384,-0.909888 0.53424,0 1.0824,0.38677 1.21318,0.773542"
       id="path4330" />
    <path
       inkscape:connector-curvature="0"
       style="fill:#1961b5;fill-opacity:1;fill-rule:nonzero;stroke:none;stroke-width:0.71232587"
       d="m 100.60494,98.959983 h -1.469175 l -0.748498,2.203757 c -0.255991,0.13079 -0.489725,0.26156 -0.934928,0.26156 -1.35787,0 -1.775249,-0.97945 -1.266047,-2.615576 0.489722,-1.577687 1.59995,-2.999561 3.091382,-2.999561 0.706761,0 1.380136,0.467465 1.719596,0.937715 l 0.4146,-0.926581 c -0.54538,-0.406247 -1.20762,-0.575987 -1.975593,-0.575987 -2.064631,0 -4.059701,1.196486 -4.78872,3.536592 -0.690067,2.209318 0.681717,3.208248 2.565485,3.208248 0.787455,0 1.64169,-0.1892 2.518183,-0.42573 z m 0,0"
       id="path4332" />
    <path
       inkscape:connector-curvature="0"
       style="fill:#1961b5;fill-opacity:1;fill-rule:nonzero;stroke:none;stroke-width:0.71232587"
       d="m 79.054296,96.099545 h 1.716817 l 0.253209,-0.68728 h -4.972368 l -0.242079,0.698414 1.833682,0.0028 -1.889333,5.751471 h 1.410739 z m 0,0"
       id="path4334" />
    <path
       inkscape:connector-curvature="0"
       style="fill:#1961b5;fill-opacity:1;fill-rule:nonzero;stroke:none;stroke-width:0.71232587"
       d="m 89.761446,99.335621 1.661165,-2.30671 0.05844,2.30671 z m 3.391895,2.529309 -0.492507,-6.452665 h -0.715109 l -4.816547,6.449895 h 0.893189 c 0.392337,-0.64833 0.818064,-1.23823 1.296656,-1.953337 h 2.192628 c 0.04731,0.631637 0.03338,1.260487 0.02225,1.956107 z m 0,0"
       id="path4336" />
    <path
       inkscape:connector-curvature="0"
       style="fill:#1961b5;fill-opacity:1;fill-rule:nonzero;stroke:none;stroke-width:0.71232587"
       d="m 116.34845,95.412265 -2.1008,6.452665 h 3.71467 l 0.24764,-0.72623 h -2.32619 l 0.77911,-2.387407 2.24828,0.0028 0.20869,-0.645544 -2.24828,0.0028 0.66502,-2.02289 h 2.29002 l 0.23373,-0.676121 z m 0,0"
       id="path4338" />
    <path
       inkscape:connector-curvature="0"
       style="fill:#33b551;fill-opacity:1;fill-rule:nonzero;stroke:none;stroke-width:0.71232587"
       d="m 102.49427,75.308537 c 0.5259,-0.523116 0.97945,-1.001709 1.46083,-1.533173 0.24486,-0.269903 0.48415,-0.537026 0.71789,-0.806931 l 1.36621,5.693042 c -0.31998,0.356163 -0.64832,0.709544 -0.98501,1.057359 -8.133313,8.419916 -18.117005,11.970414 -22.301921,7.927409 -4.574468,-4.265609 -0.879277,-14.146349 7.254039,-22.566264 9.096068,-8.675907 18.072482,-11.725552 20.843882,-8.069317 2.01733,2.646178 0.13912,7.084305 -1.0991,9.346496 l -0.5259,-0.0028 c 2.23159,-4.151516 2.71018,-7.582367 1.02397,-9.27136 -2.89104,-2.888258 -11.066091,0.598244 -18.22274,7.754893 -7.156651,7.15665 -10.595849,15.284401 -7.702024,18.175441 2.89104,2.891042 11.016008,-0.548156 18.169874,-7.704805"
       id="path4340" />
    <path
       inkscape:connector-curvature="0"
       style="fill:#33b551;fill-opacity:1;fill-rule:nonzero;stroke:none;stroke-width:0.71232587"
       d="m 102.1715,66.824621 c 0,-1.53317 1.241,-2.774175 2.77417,-2.774175 1.53039,0 2.77418,1.241005 2.77418,2.774175 0,1.530388 -1.24379,2.771393 -2.77418,2.771393 -1.53317,0 -2.77417,-1.241005 -2.77417,-2.771393"
       id="path4342" />
    <path
       inkscape:connector-curvature="0"
       style="fill:#33b551;fill-opacity:1;fill-rule:nonzero;stroke:none;stroke-width:0.71232587"
       d="m 114.86537,63.71376 c 0,-1.149181 0.93214,-2.081326 2.08133,-2.081326 1.14918,0 2.07854,0.932145 2.07854,2.081326 0,1.149182 -0.92936,2.078545 -2.07854,2.078545 -1.14919,0 -2.08133,-0.929363 -2.08133,-2.078545"
       id="path4344" />
    <path
       inkscape:connector-curvature="0"
       style="fill:#1961b5;fill-opacity:1;fill-rule:nonzero;stroke:none;stroke-width:0.71232587"
       d="m 95.785607,71.532651 -1.33561,4.084745 h 7.732633 l -4.702467,14.572073 h 7.382037 l 6.05199,-18.656818 z m 0,0"
       id="path4346" />
    <path
       inkscape:connector-curvature="0"
       style="fill:#1961b5;fill-opacity:1;fill-rule:nonzero;stroke:none;stroke-width:0.71232587"
       d="m 113.08455,73.825451 c 1.13527,-2.131413 3.45312,-3.116429 5.17828,-2.198193 1.72794,0.918231 2.20654,3.391896 1.07405,5.523308 -1.13527,2.134195 -3.45311,3.116424 -5.17827,2.200975 -1.72517,-0.921015 -2.20654,-3.394678 -1.07406,-5.52609"
       id="path4348" />
  </g>
</svg>
